<?xml version="1.0" encoding="iso-8859-1"?>
<!-- Generator: Adobe Illustrator 19.0.0, SVG Export Plug-In . SVG Version: 6.00 Build 0)  -->
<svg version="1.1" id="Layer_1" xmlns="http://www.w3.org/2000/svg" xmlns:xlink="http://www.w3.org/1999/xlink" x="0px" y="0px"
	 viewBox="0 0 512 512" style="enable-background:new 0 0 512 512;" xml:space="preserve">
<g>
	<g>
		<path d="M451.918,216.816v-27.955c0-15.677-12.227-28.297-27.839-28.732c-38.03-1.067-83.314,29.351-123.671,56.989v-33.739
			h-88.816v35.486c-39.845-27.605-84.926-58.763-122.759-58.763c-0.132,0-0.27,0-0.401,0.001
			c-15.632,0.101-28.35,12.991-28.35,28.735v27.978H0v78.367h60.082v27.955c0,15.677,12.227,28.297,27.839,28.732
			c0.644,0.018,1.283,0.026,1.931,0.026c37.615,0,82.065-29.846,121.74-57.016v33.74h88.816v-35.485
			c39.845,27.605,84.926,58.763,122.759,58.763c0.132,0,0.27,0,0.401-0.001c15.632-0.101,28.35-12.991,28.35-28.735v-27.979H512
			v-78.367H451.918z M60.082,279.51H15.673v-47.02h44.408V279.51z M211.592,275.887c-1.982,1.355-3.975,2.719-5.989,4.099
			c-39.1,26.789-83.412,57.138-117.248,56.217c-6.948-0.193-12.6-6.054-12.6-13.064V188.838c0-7.156,5.732-13.015,12.773-13.061
			c0.108-0.001,0.212-0.001,0.32-0.001c33.029,0,76.13,29.861,114.17,56.216c2.893,2.005,5.745,3.977,8.574,5.927v10.245h-61.125
			v15.673h61.127V275.887z M284.735,312.946h-57.469V199.053h57.469V312.946z M436.245,323.161c0,7.156-5.732,13.016-12.773,13.061
			c-0.108,0.001-0.212,0.001-0.32,0.001c-33.029,0-76.13-29.861-114.17-56.215c-2.893-2.005-5.745-3.977-8.574-5.927v-10.245h29.78
			v-15.673h-29.78v-12.051c1.982-1.354,3.975-2.719,5.989-4.099c39.099-26.789,83.394-57.182,117.247-56.217
			c6.948,0.193,12.6,6.054,12.6,13.064V323.161z M496.327,279.51h-44.408v-47.02h44.408V279.51z"/>
	</g>
</g>
<g>
	<g>
		<rect x="345.861" y="248.163" width="15.673" height="15.673"/>
	</g>
</g>
<g>
</g>
<g>
</g>
<g>
</g>
<g>
</g>
<g>
</g>
<g>
</g>
<g>
</g>
<g>
</g>
<g>
</g>
<g>
</g>
<g>
</g>
<g>
</g>
<g>
</g>
<g>
</g>
<g>
</g>
</svg>
