<?xml version="1.0" encoding="iso-8859-1"?>
<!-- Generator: Adobe Illustrator 19.0.0, SVG Export Plug-In . SVG Version: 6.00 Build 0)  -->
<svg version="1.1" id="Capa_1" xmlns="http://www.w3.org/2000/svg" xmlns:xlink="http://www.w3.org/1999/xlink" x="0px" y="0px"
	 viewBox="0 0 405.602 405.602" style="enable-background:new 0 0 405.602 405.602;" xml:space="preserve">
<path id="XMLID_562_" d="M405.537,323.368l-23.432-194.096V81.155c0-4.971-4.029-9-9-9H32.497c-4.971,0-9,4.029-9,9v48.117
	L0.065,323.368c-0.309,2.556,0.493,5.123,2.201,7.049c1.708,1.927,4.16,3.03,6.734,3.03h160.8c4.23,0,7.89-2.947,8.793-7.08
	l14.707-67.345l37.982-8.274c1.805-0.393,3.444-1.332,4.697-2.689c29.13-31.552,45.479-69.156,47.606-109.247h81.54l21.324,176.634
	H243.048l-9.571-43.826c-1.061-4.856-5.856-7.934-10.713-6.872c-4.856,1.06-7.933,5.857-6.872,10.713l11.117,50.905
	c0.903,4.133,4.563,7.08,8.793,7.08h160.8c2.575,0,5.026-1.103,6.734-3.03C405.044,328.491,405.845,325.924,405.537,323.368z
	 M224.642,233.773l-40.817,8.892c-3.439,0.75-6.126,3.435-6.877,6.874l-14.394,65.909H19.152l21.324-176.634h84.391
	c1.83,33.703,13.923,66.194,35.25,94.471c2.994,3.969,8.638,4.759,12.605,1.766c3.968-2.993,4.759-8.637,1.766-12.605
	c-18.945-25.117-29.773-53.858-31.591-83.632h122.659C263.485,173.446,249.456,206.062,224.642,233.773z M364.105,120.813H133.622
	H41.497V90.155h322.608V120.813z"/>
<g>
</g>
<g>
</g>
<g>
</g>
<g>
</g>
<g>
</g>
<g>
</g>
<g>
</g>
<g>
</g>
<g>
</g>
<g>
</g>
<g>
</g>
<g>
</g>
<g>
</g>
<g>
</g>
<g>
</g>
</svg>
