<?xml version="1.0" encoding="iso-8859-1"?>
<!-- Generator: Adobe Illustrator 19.0.0, SVG Export Plug-In . SVG Version: 6.00 Build 0)  -->
<svg version="1.1" id="Layer_1" xmlns="http://www.w3.org/2000/svg" xmlns:xlink="http://www.w3.org/1999/xlink" x="0px" y="0px"
	 viewBox="0 0 512 512" style="enable-background:new 0 0 512 512;" xml:space="preserve">
<g>
	<g>
		<g>
			<circle cx="256" cy="102.4" r="8.533"/>
			<circle cx="256" cy="51.2" r="8.533"/>
			<path d="M315.733,247.467h34.133V204.8c0-20.608-14.686-37.837-34.133-41.805V25.6c0-14.114-11.486-25.6-25.6-25.6h-68.267
				c-14.114,0-25.6,11.486-25.6,25.6v137.395c-19.447,3.968-34.133,21.197-34.133,41.805v42.667h34.133
				c4.71,0,8.533,3.823,8.533,8.533s-3.823,8.533-8.533,8.533h-34.133V307.2c0,20.608,14.686,37.837,34.133,41.805V486.4
				c0,14.114,11.486,25.6,25.6,25.6h68.267c14.114,0,25.6-11.486,25.6-25.6V349.005c19.447-3.968,34.133-21.197,34.133-41.805
				v-42.667h-34.133c-4.71,0-8.533-3.823-8.533-8.533S311.023,247.467,315.733,247.467z M298.667,486.4
				c0,4.702-3.831,8.533-8.533,8.533h-68.267c-4.702,0-8.533-3.831-8.533-8.533V349.867H256h42.667V486.4z M256,213.333
				c4.71,0,8.533,3.823,8.533,8.533v25.6H281.6c4.71,0,8.533,3.823,8.533,8.533s-3.823,8.533-8.533,8.533H256
				c-4.71,0-8.533-3.823-8.533-8.533v-34.133C247.467,217.156,251.29,213.333,256,213.333z M247.467,196.267V179.2h17.067v17.067
				c0,4.71-3.823,8.533-8.533,8.533C251.29,204.8,247.467,200.977,247.467,196.267z M256,307.2c4.71,0,8.533,3.823,8.533,8.533
				V332.8h-17.067v-17.067C247.467,311.023,251.29,307.2,256,307.2z M298.667,162.133H256h-42.667V25.6
				c0-4.702,3.831-8.533,8.533-8.533h68.267c4.702,0,8.533,3.831,8.533,8.533V162.133z"/>
		</g>
	</g>
</g>
<g>
</g>
<g>
</g>
<g>
</g>
<g>
</g>
<g>
</g>
<g>
</g>
<g>
</g>
<g>
</g>
<g>
</g>
<g>
</g>
<g>
</g>
<g>
</g>
<g>
</g>
<g>
</g>
<g>
</g>
</svg>
